<mxfile host="app.diagrams.net" modified="2023-04-20T07:28:15.170Z" agent="Mozilla/5.0 (Windows NT 10.0; Win64; x64) AppleWebKit/537.36 (KHTML, like Gecko) Chrome/107.0.0.0 Safari/537.36" etag="n9rY2gNaoCZESh3kv6Mm" version="21.1.9" type="github">
  <diagram id="C5RBs43oDa-KdzZeNtuy" name="Page-1">
    <mxGraphModel dx="1456" dy="707" grid="1" gridSize="10" guides="1" tooltips="1" connect="1" arrows="1" fold="1" page="1" pageScale="1" pageWidth="827" pageHeight="1169" math="0" shadow="0">
      <root>
        <mxCell id="WIyWlLk6GJQsqaUBKTNV-0" />
        <mxCell id="WIyWlLk6GJQsqaUBKTNV-1" parent="WIyWlLk6GJQsqaUBKTNV-0" />
        <mxCell id="a5ogxu9tReecGd_fqsYU-39" style="edgeStyle=orthogonalEdgeStyle;rounded=0;orthogonalLoop=1;jettySize=auto;html=1;exitX=0.5;exitY=1;exitDx=0;exitDy=0;entryX=0.5;entryY=0;entryDx=0;entryDy=0;" edge="1" parent="WIyWlLk6GJQsqaUBKTNV-1" source="WIyWlLk6GJQsqaUBKTNV-3" target="a5ogxu9tReecGd_fqsYU-13">
          <mxGeometry relative="1" as="geometry" />
        </mxCell>
        <mxCell id="WIyWlLk6GJQsqaUBKTNV-3" value="Start" style="rounded=1;whiteSpace=wrap;html=1;fontSize=12;glass=0;strokeWidth=1;shadow=0;" parent="WIyWlLk6GJQsqaUBKTNV-1" vertex="1">
          <mxGeometry x="170" y="50" width="90" height="55" as="geometry" />
        </mxCell>
        <mxCell id="a5ogxu9tReecGd_fqsYU-124" style="edgeStyle=orthogonalEdgeStyle;rounded=0;orthogonalLoop=1;jettySize=auto;html=1;exitX=0.5;exitY=1;exitDx=0;exitDy=0;entryX=0.5;entryY=1;entryDx=0;entryDy=0;" edge="1" parent="WIyWlLk6GJQsqaUBKTNV-1" source="a5ogxu9tReecGd_fqsYU-13" target="a5ogxu9tReecGd_fqsYU-102">
          <mxGeometry relative="1" as="geometry" />
        </mxCell>
        <mxCell id="a5ogxu9tReecGd_fqsYU-13" value="StartUp" style="swimlane;startSize=20;horizontal=1;containerType=tree;" vertex="1" parent="WIyWlLk6GJQsqaUBKTNV-1">
          <mxGeometry x="140" y="130" width="150" height="250" as="geometry" />
        </mxCell>
        <mxCell id="a5ogxu9tReecGd_fqsYU-97" style="edgeStyle=orthogonalEdgeStyle;rounded=0;orthogonalLoop=1;jettySize=auto;html=1;exitX=0.5;exitY=1;exitDx=0;exitDy=0;entryX=0.5;entryY=0;entryDx=0;entryDy=0;" edge="1" parent="a5ogxu9tReecGd_fqsYU-13" source="a5ogxu9tReecGd_fqsYU-95" target="a5ogxu9tReecGd_fqsYU-96">
          <mxGeometry relative="1" as="geometry" />
        </mxCell>
        <mxCell id="a5ogxu9tReecGd_fqsYU-95" value="Загрузить файл конфигурации процесса" style="rounded=1;whiteSpace=wrap;html=1;fontSize=12;glass=0;strokeWidth=1;shadow=0;" vertex="1" parent="a5ogxu9tReecGd_fqsYU-13">
          <mxGeometry x="30" y="40" width="90" height="55" as="geometry" />
        </mxCell>
        <mxCell id="a5ogxu9tReecGd_fqsYU-99" style="edgeStyle=orthogonalEdgeStyle;rounded=0;orthogonalLoop=1;jettySize=auto;html=1;exitX=0.5;exitY=1;exitDx=0;exitDy=0;entryX=0.5;entryY=0;entryDx=0;entryDy=0;" edge="1" parent="a5ogxu9tReecGd_fqsYU-13" source="a5ogxu9tReecGd_fqsYU-96" target="a5ogxu9tReecGd_fqsYU-98">
          <mxGeometry relative="1" as="geometry" />
        </mxCell>
        <mxCell id="a5ogxu9tReecGd_fqsYU-96" value="Получить файлы КК из ресурса" style="rounded=1;whiteSpace=wrap;html=1;fontSize=12;glass=0;strokeWidth=1;shadow=0;" vertex="1" parent="a5ogxu9tReecGd_fqsYU-13">
          <mxGeometry x="30" y="110" width="90" height="55" as="geometry" />
        </mxCell>
        <mxCell id="a5ogxu9tReecGd_fqsYU-98" value="Копировать файлы КК на ресурс робота" style="rounded=1;whiteSpace=wrap;html=1;fontSize=12;glass=0;strokeWidth=1;shadow=0;" vertex="1" parent="a5ogxu9tReecGd_fqsYU-13">
          <mxGeometry x="30" y="180" width="90" height="55" as="geometry" />
        </mxCell>
        <mxCell id="a5ogxu9tReecGd_fqsYU-123" style="edgeStyle=orthogonalEdgeStyle;rounded=0;orthogonalLoop=1;jettySize=auto;html=1;exitX=0.5;exitY=0;exitDx=0;exitDy=0;entryX=0.5;entryY=1;entryDx=0;entryDy=0;" edge="1" parent="WIyWlLk6GJQsqaUBKTNV-1" source="a5ogxu9tReecGd_fqsYU-102" target="a5ogxu9tReecGd_fqsYU-121">
          <mxGeometry relative="1" as="geometry" />
        </mxCell>
        <mxCell id="a5ogxu9tReecGd_fqsYU-102" value="Для каждого файла КК" style="swimlane;startSize=20;horizontal=1;containerType=tree;" vertex="1" parent="WIyWlLk6GJQsqaUBKTNV-1">
          <mxGeometry x="380" y="130" width="150" height="470" as="geometry" />
        </mxCell>
        <mxCell id="a5ogxu9tReecGd_fqsYU-127" style="edgeStyle=orthogonalEdgeStyle;rounded=0;orthogonalLoop=1;jettySize=auto;html=1;exitX=0.5;exitY=0;exitDx=0;exitDy=0;entryX=0.5;entryY=1;entryDx=0;entryDy=0;" edge="1" parent="a5ogxu9tReecGd_fqsYU-102" source="a5ogxu9tReecGd_fqsYU-100" target="a5ogxu9tReecGd_fqsYU-108">
          <mxGeometry relative="1" as="geometry" />
        </mxCell>
        <mxCell id="a5ogxu9tReecGd_fqsYU-100" value="Получить данные из xlsx" style="rounded=1;whiteSpace=wrap;html=1;fontSize=12;glass=0;strokeWidth=1;shadow=0;" vertex="1" parent="a5ogxu9tReecGd_fqsYU-102">
          <mxGeometry x="30" y="400" width="90" height="55" as="geometry" />
        </mxCell>
        <mxCell id="a5ogxu9tReecGd_fqsYU-128" style="edgeStyle=orthogonalEdgeStyle;rounded=0;orthogonalLoop=1;jettySize=auto;html=1;exitX=0.5;exitY=0;exitDx=0;exitDy=0;entryX=0.5;entryY=1;entryDx=0;entryDy=0;" edge="1" parent="a5ogxu9tReecGd_fqsYU-102" source="a5ogxu9tReecGd_fqsYU-108" target="a5ogxu9tReecGd_fqsYU-109">
          <mxGeometry relative="1" as="geometry" />
        </mxCell>
        <mxCell id="a5ogxu9tReecGd_fqsYU-108" value="Фильтровать по Статус ЗП" style="rounded=1;whiteSpace=wrap;html=1;fontSize=12;glass=0;strokeWidth=1;shadow=0;" vertex="1" parent="a5ogxu9tReecGd_fqsYU-102">
          <mxGeometry x="30" y="325" width="90" height="55" as="geometry" />
        </mxCell>
        <mxCell id="a5ogxu9tReecGd_fqsYU-129" style="edgeStyle=orthogonalEdgeStyle;rounded=0;orthogonalLoop=1;jettySize=auto;html=1;exitX=0.5;exitY=0;exitDx=0;exitDy=0;entryX=0.5;entryY=1;entryDx=0;entryDy=0;" edge="1" parent="a5ogxu9tReecGd_fqsYU-102" source="a5ogxu9tReecGd_fqsYU-109" target="a5ogxu9tReecGd_fqsYU-113">
          <mxGeometry relative="1" as="geometry" />
        </mxCell>
        <mxCell id="a5ogxu9tReecGd_fqsYU-109" value="Получить список номеров ЗП" style="rounded=1;whiteSpace=wrap;html=1;fontSize=12;glass=0;strokeWidth=1;shadow=0;" vertex="1" parent="a5ogxu9tReecGd_fqsYU-102">
          <mxGeometry x="30" y="250" width="90" height="55" as="geometry" />
        </mxCell>
        <mxCell id="a5ogxu9tReecGd_fqsYU-130" style="edgeStyle=orthogonalEdgeStyle;rounded=0;orthogonalLoop=1;jettySize=auto;html=1;exitX=0.5;exitY=0;exitDx=0;exitDy=0;entryX=0.5;entryY=1;entryDx=0;entryDy=0;" edge="1" parent="a5ogxu9tReecGd_fqsYU-102" source="a5ogxu9tReecGd_fqsYU-113" target="a5ogxu9tReecGd_fqsYU-115">
          <mxGeometry relative="1" as="geometry" />
        </mxCell>
        <mxCell id="a5ogxu9tReecGd_fqsYU-113" value="Выполнить запрос к базе и получить данные для ЗП" style="rounded=1;whiteSpace=wrap;html=1;fontSize=12;glass=0;strokeWidth=1;shadow=0;" vertex="1" parent="a5ogxu9tReecGd_fqsYU-102">
          <mxGeometry x="34" y="180" width="90" height="55" as="geometry" />
        </mxCell>
        <mxCell id="a5ogxu9tReecGd_fqsYU-131" style="edgeStyle=orthogonalEdgeStyle;rounded=0;orthogonalLoop=1;jettySize=auto;html=1;exitX=0.5;exitY=0;exitDx=0;exitDy=0;entryX=0.5;entryY=1;entryDx=0;entryDy=0;" edge="1" parent="a5ogxu9tReecGd_fqsYU-102" source="a5ogxu9tReecGd_fqsYU-115" target="a5ogxu9tReecGd_fqsYU-116">
          <mxGeometry relative="1" as="geometry" />
        </mxCell>
        <mxCell id="a5ogxu9tReecGd_fqsYU-115" value="Заполнить получеными данными файл КК" style="rounded=1;whiteSpace=wrap;html=1;fontSize=12;glass=0;strokeWidth=1;shadow=0;" vertex="1" parent="a5ogxu9tReecGd_fqsYU-102">
          <mxGeometry x="34" y="110" width="90" height="55" as="geometry" />
        </mxCell>
        <mxCell id="a5ogxu9tReecGd_fqsYU-116" value="Переместить обработанные файлы КК на ресурс" style="rounded=1;whiteSpace=wrap;html=1;fontSize=12;glass=0;strokeWidth=1;shadow=0;" vertex="1" parent="a5ogxu9tReecGd_fqsYU-102">
          <mxGeometry x="34" y="40" width="90" height="55" as="geometry" />
        </mxCell>
        <mxCell id="a5ogxu9tReecGd_fqsYU-121" value="End" style="rounded=1;whiteSpace=wrap;html=1;fontSize=12;glass=0;strokeWidth=1;shadow=0;" vertex="1" parent="WIyWlLk6GJQsqaUBKTNV-1">
          <mxGeometry x="410" y="50" width="90" height="55" as="geometry" />
        </mxCell>
      </root>
    </mxGraphModel>
  </diagram>
</mxfile>
